<svg width="60" height="60" viewBox="0 0 60 60" fill="none" xmlns="http://www.w3.org/2000/svg">
<circle cx="30" cy="30" r="30" fill="#EB5757"/>
<g clip-path="url(#clip0_25_1580)">
<path d="M18.1599 12.6776L17.146 39.0369C15.7815 38.3367 14.0696 38.0337 12.2733 38.2886C8.40023 38.8371 5.61133 41.7589 6.04433 44.8136C6.4774 47.8685 9.96813 49.8997 13.8411 49.351C17.2784 48.8639 19.8585 46.5076 20.093 43.8485L20.0937 43.85C20.0942 43.844 20.0946 43.835 20.0951 43.8282C20.1009 43.7606 20.1041 43.6922 20.1066 43.6242C20.2509 40.8786 21.1338 20.0233 21.1338 20.0233L42.881 17.7827L41.8988 36.5653C40.5032 35.7886 38.7094 35.4425 36.8233 35.7098C32.9502 36.2589 30.1615 39.18 30.5945 42.2351C31.0274 45.2898 34.5182 47.3214 38.3912 46.772C41.9017 46.2752 44.5171 43.8281 44.6544 41.0997L44.6561 41.098C44.7297 39.8719 45.9567 11.56 46 10.5595L18.1599 12.6776Z" fill="#F8F8F8"/>
</g>
<defs>
<clipPath id="clip0_25_1580">
<rect width="40" height="40" fill="white" transform="translate(6 10)"/>
</clipPath>
</defs>
</svg>
